<svg width="48" height="40" viewBox="0 0 48 40" fill="none" xmlns="http://www.w3.org/2000/svg">
<path d="M29.9121 39.0155C29.7651 39.4789 30.1082 39.9559 30.5945 39.9559H46.5885C47.1091 39.9559 47.4534 39.4154 47.2332 38.9438L29.4325 0.820798C29.1987 0.320054 28.6959 0 28.1431 0H21.1172C18.8813 0 16.8525 1.30873 15.9312 3.34539L0.0650852 38.42C-0.184351 38.9714 0.323812 39.5561 0.898996 39.3674C16.4275 34.273 27.8121 19.4087 28.5864 2.1219C28.604 1.72939 29.1552 1.63266 29.2867 2.00292C31.4451 8.08069 32.6198 14.6232 32.6198 21.4397C32.6198 27.5657 31.671 33.4705 29.9121 39.0155Z" fill="#2653F2"/>
</svg>
