<svg width="140" height="40" viewBox="0 0 140 40" fill="none" xmlns="http://www.w3.org/2000/svg">
<path d="M29.9121 39.0155C29.7651 39.4789 30.1082 39.9559 30.5945 39.9559H46.5885C47.1091 39.9559 47.4534 39.4154 47.2332 38.9438L29.4325 0.820798C29.1987 0.320054 28.6959 0 28.1431 0H21.1172C18.8813 0 16.8525 1.30873 15.9312 3.34539L0.0650852 38.42C-0.184351 38.9714 0.323812 39.5561 0.898996 39.3674C16.4275 34.273 27.8121 19.4087 28.5864 2.1219C28.604 1.72939 29.1552 1.63266 29.2867 2.00292C31.4451 8.08069 32.6198 14.6232 32.6198 21.4397C32.6198 27.5657 31.671 33.4705 29.9121 39.0155Z" fill="#2653F2"/>
<path d="M115.673 18.5424C115.673 13.7777 119.005 11.3798 122.399 11.3798C124.237 11.3798 126.136 12.096 127.507 13.5286C128.877 12.096 130.777 11.3798 132.614 11.3798C136.009 11.3798 139.341 13.7777 139.341 18.5424V27.2934H135.604V18.5424C135.604 16.2691 134.047 15.148 132.489 15.148C130.932 15.148 129.375 16.2691 129.375 18.5424V27.2934H125.638V18.5424C125.638 16.2691 124.081 15.148 122.524 15.148C120.967 15.148 119.41 16.2691 119.41 18.5424V27.2934H115.673V18.5424Z" fill="white"/>
<path d="M100.102 20.4732V11.7223H103.839V20.4732C103.839 22.7466 105.551 23.8677 107.264 23.8677C108.977 23.8677 110.69 22.7466 110.69 20.4732V11.7223H114.427V20.4732C114.427 25.238 110.846 27.6359 107.264 27.6359C103.683 27.6359 100.102 25.238 100.102 20.4732Z" fill="white"/>
<path d="M98.8692 15.4418C96.2844 15.2549 94.1979 16.6874 94.1979 19.8639V27.2934H90.4608V19.8639C90.4608 14.8501 93.6373 11.7047 98.8692 11.7047V15.4418Z" fill="white"/>
<path d="M89.2286 23.5562V27.2933C84.5261 27.2933 80.8202 26.1099 80.8202 19.4143V7.0509H84.5572V11.7222H88.2943V15.4593H84.5572V20.7534C84.5572 23.1514 86.3012 23.5562 89.2286 23.5562Z" fill="white"/>
<path d="M75.6404 23.0267C75.3913 20.5665 65.4881 22.9333 65.8618 16.518C66.0486 13.2792 69.3186 11.2861 72.7131 11.2861C75.3913 11.2861 78.1629 12.5318 79.5643 15.428L76.3255 17.172C75.5159 15.5215 73.9276 14.8986 72.4639 14.8986C71.0002 14.8986 69.6923 15.5837 69.5988 16.5803C69.412 18.9159 79.3775 16.4246 79.3775 23.1824C79.3775 26.2966 76.1076 28.2586 72.6819 28.2586C69.9414 28.2586 67.1075 27.0129 65.6749 24.0855L68.9137 22.3416C69.7857 23.9298 71.4985 24.5215 72.9622 24.5215C74.457 24.5215 75.7338 23.8987 75.6404 23.0267Z" fill="white"/>
<path d="M56.9408 11.4106C61.9547 11.4107 64.4151 15.4903 64.4151 19.5699V27.2931H60.678V19.601C60.6779 17.3588 59.5256 15.1478 56.9408 15.1478C51.5689 15.1478 52.2009 24.0353 57.0808 23.8411H58.088H59.4101V27.2491C59.4101 27.2491 58.6756 27.2931 58.2567 27.3225C46.5129 28.646 46.8881 11.4107 56.9408 11.4106Z" fill="white"/>
<path d="M136.282 39.9558V37.7171L136.387 38.0079L133.796 33.7861H134.29L136.643 37.6201H136.396L138.75 33.7861H139.217L136.625 38.0079L136.731 37.7171V39.9558H136.282Z" fill="white"/>
<path d="M129.511 39.9997C129.052 39.9997 128.626 39.9234 128.233 39.7706C127.845 39.6119 127.507 39.3916 127.219 39.1095C126.931 38.8275 126.708 38.4985 126.549 38.1224C126.391 37.7405 126.311 37.3233 126.311 36.8708C126.311 36.4184 126.391 36.0042 126.549 35.6281C126.708 35.2462 126.931 34.9142 127.219 34.6321C127.513 34.3501 127.854 34.1327 128.242 33.9799C128.629 33.8213 129.052 33.7419 129.511 33.7419C129.946 33.7419 130.351 33.8125 130.727 33.9535C131.109 34.0945 131.435 34.309 131.705 34.5969L131.423 34.8877C131.159 34.6292 130.865 34.4441 130.542 34.3325C130.225 34.215 129.887 34.1562 129.528 34.1562C129.135 34.1562 128.767 34.2238 128.427 34.3589C128.092 34.4941 127.798 34.685 127.545 34.9318C127.298 35.1786 127.105 35.4665 126.964 35.7956C126.828 36.1246 126.761 36.483 126.761 36.8708C126.761 37.2586 126.828 37.6171 126.964 37.9461C127.105 38.2752 127.298 38.5631 127.545 38.8099C127.798 39.0567 128.092 39.2476 128.427 39.3828C128.767 39.5179 129.135 39.5855 129.528 39.5855C129.887 39.5855 130.225 39.5297 130.542 39.418C130.865 39.3005 131.159 39.1095 131.423 38.8451L131.705 39.136C131.435 39.4239 131.109 39.6413 130.727 39.7882C130.351 39.9292 129.946 39.9997 129.511 39.9997Z" fill="white"/>
<path d="M117.961 39.9558V33.7861H118.34L122.738 39.4005H122.535V33.7861H122.984V39.9558H122.614L118.207 34.3414H118.41V39.9558H117.961Z" fill="white"/>
<path d="M110.699 36.6242H114.039V37.0208H110.699V36.6242ZM110.751 39.5504H114.559V39.9558H110.302V33.7861H114.427V34.1916H110.751V39.5504Z" fill="white"/>
<path d="M104.358 39.9997C103.893 39.9997 103.464 39.9234 103.071 39.7706C102.677 39.6119 102.333 39.3916 102.04 39.1095C101.752 38.8275 101.528 38.4985 101.37 38.1224C101.211 37.7405 101.132 37.3233 101.132 36.8708C101.132 36.4184 101.211 36.0042 101.37 35.6281C101.528 35.2462 101.755 34.9142 102.048 34.6321C102.342 34.3501 102.683 34.1327 103.071 33.9799C103.464 33.8213 103.896 33.7419 104.366 33.7419C104.813 33.7419 105.227 33.8125 105.609 33.9535C105.991 34.0945 106.317 34.306 106.587 34.5881L106.305 34.8877C106.035 34.6233 105.738 34.4353 105.415 34.3237C105.098 34.212 104.751 34.1562 104.375 34.1562C103.976 34.1562 103.605 34.2238 103.265 34.3589C102.924 34.4941 102.627 34.685 102.374 34.9318C102.122 35.1786 101.925 35.4665 101.784 35.7956C101.649 36.1246 101.581 36.483 101.581 36.8708C101.581 37.2586 101.649 37.6171 101.784 37.9461C101.925 38.2752 102.122 38.5631 102.374 38.8099C102.627 39.0567 102.924 39.2476 103.265 39.3828C103.605 39.5179 103.976 39.5855 104.375 39.5855C104.74 39.5855 105.083 39.5297 105.406 39.418C105.735 39.3064 106.035 39.1213 106.305 38.8628L106.561 39.2065C106.285 39.4709 105.953 39.6707 105.565 39.8058C105.183 39.9351 104.781 39.9997 104.358 39.9997ZM106.129 39.1624V36.8973H106.561V39.2065L106.129 39.1624Z" fill="white"/>
<path d="M92.7998 39.9558L95.6379 33.7861H96.0874L98.9254 39.9558H98.4406L95.7612 34.0682H95.9552L93.2846 39.9558H92.7998ZM93.8398 38.2195L93.9897 37.8405H97.6827L97.8325 38.2195H93.8398Z" fill="white"/>
</svg>
